<?xml version="1.0" encoding="UTF-8"?>
<svg width="71px" height="71px" viewBox="0 0 71 71" version="1.1" xmlns="http://www.w3.org/2000/svg" xmlns:xlink="http://www.w3.org/1999/xlink">
    <!-- Generator: sketchtool 50.2 (55047) - http://www.bohemiancoding.com/sketch -->
    <title>62C49A5F-A2F5-43CF-918D-DFE5C2E40403</title>
    <desc>Created with sketchtool.</desc>
    <defs></defs>
    <g id="Page-1" stroke="none" stroke-width="1" fill="none" fill-rule="evenodd">
        <g id="Automation-Academy-Homepage-new" transform="translate(-1267.000000, -1475.000000)" fill="#FFFFFF" fill-rule="nonzero">
            <g id="Group-19-Copy" transform="translate(1216.000000, 1414.000000)">
                <g id="aa-white-icon" transform="translate(51.000000, 61.000000)">
                    <path d="M70.9995292,35.680899 C70.8996214,55.2867476 54.9249496,71.0994369 35.319101,70.9995292 C15.7132524,70.8996214 -0.0994369459,54.9249496 0.000470831379,35.319101 C0.100378609,15.7132524 16.0750504,-0.0994369459 35.680899,0.000470831379 C55.2867476,0.100378609 71.0994369,16.0750504 70.9995292,35.680899 Z M31.94953,45.5033612 C31.94953,47.5002097 33.6135705,49.0533141 35.3885469,48.9423781 C37.2744594,48.9423781 38.8275638,47.3892737 38.8275638,45.5033612 C38.8275638,43.6174487 37.2744594,42.0643443 35.3885469,42.0643443 C33.5026344,42.0643443 31.94953,43.6174487 31.94953,45.5033612 Z M50.3649108,53.0470112 C52.1398872,52.270459 52.8055034,50.1626744 52.0289512,48.387698 L45.2618535,33.9660142 C44.4853013,32.1910378 42.3775167,31.5254216 40.6025403,32.3019738 C38.8275638,33.078526 38.1619476,35.1863105 38.9384998,36.961287 L45.7055976,51.3829707 C46.2602777,52.603267 47.5915101,53.3798192 48.8118064,53.3798192 C49.4774226,53.3798192 49.9211667,53.2688832 50.3649108,53.0470112 Z M22.0762235,53.3798192 C23.5183919,53.3798192 24.8496242,52.492331 25.2933683,51.0501626 L36.7197793,19.2115224 C37.3853954,17.436546 36.3869712,15.4396974 34.6119947,14.7740813 C32.8370183,14.1084651 30.8401697,15.1068894 30.1745536,16.8818658 L18.8590787,48.720506 C18.1934625,50.4954825 19.1918867,52.492331 20.9668632,53.1579472 C21.2996713,53.2688832 21.7434154,53.3798192 22.0762235,53.3798192 Z" id="Combined-Shape"></path>
                </g>
            </g>
        </g>
    </g>
</svg>