<?xml version="1.0" encoding="UTF-8"?>
<svg width="77px" height="82px" viewBox="0 0 77 82" version="1.1" xmlns="http://www.w3.org/2000/svg" xmlns:xlink="http://www.w3.org/1999/xlink">
    <!-- Generator: sketchtool 50.2 (55047) - http://www.bohemiancoding.com/sketch -->
    <title>9268270C-9683-4012-92B9-F6AA3DBD971E</title>
    <desc>Created with sketchtool.</desc>
    <defs></defs>
    <g id="Page-1" stroke="none" stroke-width="1" fill="none" fill-rule="evenodd" stroke-linecap="round" stroke-linejoin="round">
        <g id="Automation-Academy-Homepage-new" transform="translate(-778.000000, -1465.000000)" stroke="#FC4710" stroke-width="3">
            <g id="Group-13" transform="translate(780.000000, 1467.000000)">
                <g id="OCR-icon">
                    <polyline id="Line" points="0 15.6 0 0 15.6 0"></polyline>
                    <polyline id="Line-Copy" transform="translate(65.000000, 7.800000) scale(-1, 1) translate(-65.000000, -7.800000) " points="57.2 15.6 57.2 0 72.8 0"></polyline>
                    <polyline id="Line-Copy-3" transform="translate(7.800000, 70.200000) scale(1, -1) translate(-7.800000, -70.200000) " points="0 78 0 62.4 15.6 62.4"></polyline>
                    <polyline id="Line-Copy-2" transform="translate(65.000000, 70.200000) scale(-1, -1) translate(-65.000000, -70.200000) " points="57.2 78 57.2 62.4 72.8 62.4"></polyline>
                    <path d="M16.25,24.05 L55.25,24.05" id="Line-2"></path>
                    <path d="M16.25,37.05 L55.25,37.05" id="Line-2-Copy"></path>
                    <path d="M16.25,50.05 L42.25,50.05" id="Line-2-Copy-2"></path>
                </g>
            </g>
        </g>
    </g>
</svg>