<?xml version="1.0" encoding="UTF-8"?>
<svg width="94px" height="82px" viewBox="0 0 94 82" version="1.1" xmlns="http://www.w3.org/2000/svg" xmlns:xlink="http://www.w3.org/1999/xlink">
    <!-- Generator: sketchtool 50.2 (55047) - http://www.bohemiancoding.com/sketch -->
    <title>82F4A725-F262-48F3-93B1-E6104503559B</title>
    <desc>Created with sketchtool.</desc>
    <defs></defs>
    <g id="Page-1" stroke="none" stroke-width="1" fill="none" fill-rule="evenodd" stroke-linecap="round" stroke-linejoin="round">
        <g id="Automation-Academy-Homepage-new" transform="translate(-301.000000, -1464.000000)" stroke="#FC4710" stroke-width="3">
            <g id="Group-18" transform="translate(300.000000, 1466.000000)">
                <g id="speed-icon" transform="translate(1.000000, 0.434783)">
                    <polygon id="Stroke-7763" points="87.756 9.8984 92 -0.0016 82.096 4.2424 65.128 21.2104 70.784 26.8664"></polygon>
                    <path d="M63.7128,33.9376 C62.1528,35.5016 53.8128,38.1776 53.8128,38.1776 C53.8128,38.1776 56.4928,29.8456 58.0568,28.2816 C59.6208,26.7176 62.1528,26.7176 63.7128,28.2816 C65.2768,29.8456 65.2768,32.3736 63.7128,33.9376 L63.7128,33.9376 Z" id="Stroke-7764"></path>
                    <polyline id="Stroke-7765" points="80.6836 16.9688 83.5116 25.4528 76.4436 32.5248 70.7836 26.8688"></polyline>
                    <polyline id="Stroke-7766" points="75.0272 11.3124 66.5432 8.4844 59.4712 15.5564 65.1272 21.2124"></polyline>
                    <path d="M47.998,48.0392 C27.89,68.0552 7.91,80.4752 3.254,75.8192 C0.514,73.0832 3.678,65.0472 10.822,54.7952" id="Stroke-7767"></path>
                    <path d="M69.3692,41.8592 C69.7812,43.8432 69.9972,45.8952 69.9972,47.9992 C69.9972,64.5672 56.5652,77.9992 39.9972,77.9992 C23.4292,77.9992 9.9972,64.5672 9.9972,47.9992 C9.9972,31.4312 23.4292,17.9992 39.9972,17.9992 C44.1812,17.9992 48.1612,18.8512 51.7772,20.3992" id="Stroke-7768"></path>
                </g>
            </g>
        </g>
    </g>
</svg>