<?xml version="1.0" encoding="UTF-8"?>
<svg width="84px" height="84px" viewBox="0 0 84 84" version="1.1" xmlns="http://www.w3.org/2000/svg" xmlns:xlink="http://www.w3.org/1999/xlink">
    <!-- Generator: sketchtool 50.2 (55047) - http://www.bohemiancoding.com/sketch -->
    <title>A17AC3CA-2628-47A9-B929-78184AC8E506</title>
    <desc>Created with sketchtool.</desc>
    <defs></defs>
    <g id="Page-1" stroke="none" stroke-width="1" fill="none" fill-rule="evenodd" stroke-linecap="round" stroke-linejoin="round">
        <g id="Automation-Academy-Homepage-new" transform="translate(-1262.000000, -1064.000000)" stroke="#FC4710" stroke-width="3">
            <g id="Group-9" transform="translate(1260.000000, 1066.000000)">
                <g id="systems-icon" transform="translate(4.000000, 0.000000)">
                    <polygon id="Stroke-2430" points="0 10 45 10 45 0 0 0"></polygon>
                    <polygon id="Stroke-2431" points="35 49 80 49 80 39 35 39"></polygon>
                    <polygon id="Stroke-2432" points="0 80 45 80 45 70 0 70"></polygon>
                    <path d="M25,10 L25,22.3958333 C25,25.3247917 27.24,27.7083333 30,27.7083333 L40,27.7083333 C42.76,27.7083333 45,30.0883333 45,33.0208333 L45,38.3333333" id="Stroke-2433"></path>
                    <path d="M61.6666667,49 L61.6666667,68.6428571 C61.6666667,71.5964286 59.43,74 56.6666667,74 L45,74" id="Stroke-2434"></path>
                </g>
            </g>
        </g>
    </g>
</svg>