<?xml version="1.0" encoding="UTF-8"?>
<svg width="74px" height="84px" viewBox="0 0 74 84" version="1.1" xmlns="http://www.w3.org/2000/svg" xmlns:xlink="http://www.w3.org/1999/xlink">
    <!-- Generator: sketchtool 50.2 (55047) - http://www.bohemiancoding.com/sketch -->
    <title>93BB8BAD-58A9-4CFC-A603-027B576CC513</title>
    <desc>Created with sketchtool.</desc>
    <defs></defs>
    <g id="Page-1" stroke="none" stroke-width="1" fill="none" fill-rule="evenodd" stroke-linecap="round" stroke-linejoin="round">
        <g id="Automation-Academy-Homepage-new" transform="translate(-778.000000, -1062.000000)" stroke="#FC4710" stroke-width="3">
            <g id="Group-8" transform="translate(780.000000, 1064.000000)">
                <g id="time-icon">
                    <path d="M31.7808219,0 L38.3561644,0" id="Stroke-3275"></path>
                    <path d="M35.0684932,0 L35.0684932,10.9589041" id="Stroke-3276"></path>
                    <path d="M63.5616438,9.8630137 L69.0410959,15.3424658" id="Stroke-3277"></path>
                    <path d="M65.7534247,13.1506849 L59.1780822,19.7260274" id="Stroke-3278"></path>
                    <path d="M17.5342466,27.3972603 L23.0136986,32.8767123" id="Stroke-3279"></path>
                    <path d="M35.0684932,69.0410959 L35.0684932,62.4657534" id="Stroke-3280"></path>
                    <path d="M17.5342466,63.5616438 L23.0136986,58.0821918" id="Stroke-3281"></path>
                    <path d="M59.1780822,44.9315068 L52.6027397,44.9315068" id="Stroke-3282"></path>
                    <path d="M52.6027397,63.5616438 L47.1232877,58.0821918" id="Stroke-3283"></path>
                    <path d="M52.6027397,27.3972603 L47.1232877,32.8767123" id="Stroke-3284"></path>
                    <path d="M35.0684932,9.8630137 L35.0684932,44.9315068 L0,44.9315068 C0,64.2191781 15.7001644,80 35.0684932,80 C54.4333151,80 70.1369863,64.2998356 70.1369863,44.9315068 C70.1369863,25.5666849 54.4333151,9.8630137 35.0684932,9.8630137 L35.0684932,9.8630137 Z" id="Stroke-3285"></path>
                </g>
            </g>
        </g>
    </g>
</svg>